# xmcd
#
# Track frame offsets: 
#        150
#        4690
#        14025
#        24450
#        35192
#        47492
#        57922
#        70650
#        83250
#        94200
#        109050
#        121200
#        132975
#        145885
#        154350
#        161097
#
# Disc length: 2291 seconds
#
# Revision: 11
# Processed by: cddbd v1.5.2PL0 Copyright (c) Steve Scherf et al.
# Submitted via: ExactAudioCopyFreeDBPlugin 1.0
#
DISCID=d208f110
DTITLE=Various Artist - Country pure - CD 1
DYEAR=1988
DGENRE=Country
TTITLE0=Intro - Orange Blossom Special
TTITLE1=Nashville Music Company - The Yellow Rose Of Texas
TTITLE2=Floyd Cramer - San Antonio Rose
TTITLE3=Greg Barett - El Paso
TTITLE4=Frankie Laine - High Noon
TTITLE5=Johnny Cash - You Win Again
TTITLE6=Don Williams - Where Do I Go From Here
TTITLE7=Johnny Cash - Folsom Prison Blues
TTITLE8=Roger Miller - King Of The Road
TTITLE9=Kingston Trio - Tom Dooley
TTITLE10=Johnny Cash - I Walk The Line
TTITLE11=Conway Twitty - You Made Me What I Am
TTITLE12=Boxcar Willie - "T" for Texas
TTITLE13=Conway Twitty - Blue Is The Way That I Feel
TTITLE14=Waylon Jennings - It's So Easy
TTITLE15=Johny Cash - Oh, Lonesome Me
EXTD=YEAR: 1988
EXTT0=
EXTT1=
EXTT2=
EXTT3=
EXTT4=
EXTT5=
EXTT6=
EXTT7=
EXTT8=
EXTT9=
EXTT10=
EXTT11=
EXTT12=
EXTT13=
EXTT14=
EXTT15=
PLAYORDER=
